<?xml version="1.0" encoding="utf-8"?>
<!-- Generator: Adobe Illustrator 16.0.0, SVG Export Plug-In . SVG Version: 6.00 Build 0)  -->
<!DOCTYPE svg PUBLIC "-//W3C//DTD SVG 1.1//EN" "http://www.w3.org/Graphics/SVG/1.1/DTD/svg11.dtd">
<svg version="1.1" id="Layer_1" xmlns="http://www.w3.org/2000/svg" xmlns:xlink="http://www.w3.org/1999/xlink" x="0px" y="0px"
	 width="16px" height="16px" viewBox="0 0 16 16" enable-background="new 0 0 16 16" xml:space="preserve">
<path fill="#FFFFFF" d="M8.002,1C4.134,1,1,4.133,1,8c0,3.865,3.134,7,7.002,7c3.865,0,7-3.135,7-7C15.002,4.133,11.867,1,8.002,1z
	 M10.35,11.482l-0.977,0.977c-0.195,0.193-0.514,0.193-0.707,0L4.558,8.354c-0.194-0.195-0.194-0.514,0-0.708l4.108-4.105
	c0.193-0.194,0.512-0.194,0.707,0l0.979,0.977c0.191,0.194,0.191,0.513,0,0.707L7.93,7.646c-0.195,0.194-0.195,0.515,0,0.708
	l2.419,2.421C10.545,10.965,10.545,11.287,10.35,11.482z"/>
</svg>
