<?xml version="1.0" encoding="utf-8"?>
<!-- Generator: Adobe Illustrator 16.0.0, SVG Export Plug-In . SVG Version: 6.00 Build 0)  -->
<!DOCTYPE svg PUBLIC "-//W3C//DTD SVG 1.1//EN" "http://www.w3.org/Graphics/SVG/1.1/DTD/svg11.dtd">
<svg version="1.1" id="Layer_1" xmlns="http://www.w3.org/2000/svg" xmlns:xlink="http://www.w3.org/1999/xlink" x="0px" y="0px"
	 width="16px" height="16px" viewBox="0 0 16 16" enable-background="new 0 0 16 16" xml:space="preserve">
<path fill="#4599C4" d="M8.002,1C4.135,1,1,4.134,1,8s3.135,7,7.002,7s7-3.134,7-7S11.869,1,8.002,1z M12.464,9.37l-0.979,0.979
	c-0.189,0.189-0.516,0.189-0.707,0L8.356,7.93c-0.196-0.194-0.515-0.194-0.708,0l-2.423,2.417c-0.194,0.192-0.513,0.192-0.707,0
	L3.541,9.371c-0.194-0.194-0.194-0.514,0-0.707l4.106-4.106c0.193-0.194,0.515-0.194,0.708,0l4.109,4.105
	C12.654,8.855,12.654,9.176,12.464,9.37z"/>
</svg>
