<?xml version="1.0" encoding="utf-8"?>
<!-- Generator: Adobe Illustrator 16.0.0, SVG Export Plug-In . SVG Version: 6.00 Build 0)  -->
<!DOCTYPE svg PUBLIC "-//W3C//DTD SVG 1.1//EN" "http://www.w3.org/Graphics/SVG/1.1/DTD/svg11.dtd">
<svg version="1.1" id="Layer_1" xmlns="http://www.w3.org/2000/svg" xmlns:xlink="http://www.w3.org/1999/xlink" x="0px" y="0px"
	 width="16px" height="16px" viewBox="0 0 16 16" enable-background="new 0 0 16 16" xml:space="preserve">
<g>
	<path fill="#FFFFFF" d="M2.5,2H0.009v12.029H2.5c0.276,0,0.5-0.225,0.5-0.5V2.5C3,2.224,2.776,2,2.5,2z M14.502,6.029h-4
		c-0.275,0-0.5-0.225-0.5-0.5v-1c0-0.275-0.16-0.341-0.354-0.146L6.354,7.675c-0.194,0.194-0.194,0.513,0,0.708l3.294,3.293
		c0.188,0.193,0.354,0.129,0.354-0.146v-1c0-0.271,0.227-0.5,0.5-0.5h4c0.275,0,0.5-0.226,0.5-0.5v-3
		C15.002,6.254,14.777,6.029,14.502,6.029z"/>
</g>
</svg>
