<?xml version="1.0" encoding="utf-8"?>
<!-- Generator: Adobe Illustrator 16.0.0, SVG Export Plug-In . SVG Version: 6.00 Build 0)  -->
<!DOCTYPE svg PUBLIC "-//W3C//DTD SVG 1.1//EN" "http://www.w3.org/Graphics/SVG/1.1/DTD/svg11.dtd">
<svg version="1.1" id="Layer_1" xmlns="http://www.w3.org/2000/svg" xmlns:xlink="http://www.w3.org/1999/xlink" x="0px" y="0px"
	 width="16px" height="16px" viewBox="0 0 16 16" enable-background="new 0 0 16 16" xml:space="preserve">
<g>
	<path fill="#FFFFFF" d="M1.986,0.019V2.51c0,0.276,0.225,0.5,0.5,0.5h11.032c0.275,0,0.5-0.224,0.5-0.5V0.019H1.986z M8.342,6.334
		c-0.193-0.194-0.513-0.194-0.708,0L4.34,9.627C4.146,9.822,4.211,9.98,4.486,9.98h1c0.275,0,0.5,0.227,0.5,0.5v4.02
		c0,0.275,0.225,0.5,0.5,0.5h3.002c0.271,0,0.5-0.225,0.5-0.5v-4.02c0-0.274,0.225-0.5,0.5-0.5h1c0.271,0,0.34-0.158,0.145-0.354
		L8.342,6.334z"/>
</g>
</svg>
