<?xml version="1.0" encoding="utf-8"?>
<!-- Generator: Adobe Illustrator 16.0.0, SVG Export Plug-In . SVG Version: 6.00 Build 0)  -->
<!DOCTYPE svg PUBLIC "-//W3C//DTD SVG 1.1//EN" "http://www.w3.org/Graphics/SVG/1.1/DTD/svg11.dtd">
<svg version="1.1" id="Layer_1" xmlns="http://www.w3.org/2000/svg" xmlns:xlink="http://www.w3.org/1999/xlink" x="0px" y="0px"
	 width="16px" height="16px" viewBox="0 0 16 16" enable-background="new 0 0 16 16" xml:space="preserve">
<path fill="#4599C4" d="M8.002,1C4.133,1,1,4.134,1,8s3.133,7,7.002,7c3.865,0,7-3.134,7-7S11.867,1,8.002,1z M12.461,7.336
	l-4.105,4.105c-0.196,0.188-0.515,0.188-0.708,0L3.541,7.336c-0.194-0.194-0.194-0.513,0-0.707l0.977-0.978
	c0.194-0.194,0.513-0.194,0.707,0l2.422,2.421c0.192,0.195,0.513,0.195,0.708,0l2.422-2.42c0.188-0.194,0.512-0.194,0.707,0
	l0.977,0.977C12.654,6.823,12.654,7.142,12.461,7.336z"/>
</svg>
